<?xml version="1.0" encoding="UTF-8" standalone="no"?>
<!-- Generator: Adobe Illustrator 15.0.0, SVG Export Plug-In . SVG Version: 6.00 Build 0)  -->

<svg
   version="1.1"
   id="Calque_1"
   x="0px"
   y="0px"
   width="400px"
   height="400px"
   viewBox="0 0 400 400"
   enable-background="new 0 0 400 400"
   xml:space="preserve"
   sodipodi:docname="a11y.svg"
   inkscape:version="1.2.1 (9c6d41e410, 2022-07-14)"
   xmlns:inkscape="http://www.inkscape.org/namespaces/inkscape"
   xmlns:sodipodi="http://sodipodi.sourceforge.net/DTD/sodipodi-0.dtd"
   xmlns="http://www.w3.org/2000/svg"
   xmlns:svg="http://www.w3.org/2000/svg"><defs
   id="defs3433" /><sodipodi:namedview
   id="namedview3431"
   pagecolor="#ffffff"
   bordercolor="#000000"
   borderopacity="0.25"
   inkscape:showpageshadow="2"
   inkscape:pageopacity="0.0"
   inkscape:pagecheckerboard="0"
   inkscape:deskcolor="#d1d1d1"
   showgrid="false"
   inkscape:zoom="1.06"
   inkscape:cx="250"
   inkscape:cy="183.01887"
   inkscape:window-width="1920"
   inkscape:window-height="986"
   inkscape:window-x="-11"
   inkscape:window-y="-11"
   inkscape:window-maximized="1"
   inkscape:current-layer="Calque_1" />







<linearGradient
   id="SVGID_1_"
   gradientUnits="userSpaceOnUse"
   x1="211.3682"
   y1="349.0654"
   x2="211.3681"
   y2="29.7866"
   gradientTransform="translate(-11.1645,10.107)">
	<stop
   offset="0.0061"
   style="stop-color:#FFFFFF"
   id="stop3334" />
	<stop
   offset="0.0156"
   style="stop-color:#FCFCFB"
   id="stop3336" />
	<stop
   offset="0.0878"
   style="stop-color:#E6E6E5"
   id="stop3338" />
	<stop
   offset="0.166"
   style="stop-color:#D6D6D5"
   id="stop3340" />
	<stop
   offset="0.2536"
   style="stop-color:#CDCDCB"
   id="stop3342" />
	<stop
   offset="0.37"
   style="stop-color:#CACAC8"
   id="stop3344" />
	<stop
   offset="0.92"
   style="stop-color:#FFFFFF"
   id="stop3346" />
	<stop
   offset="1"
   style="stop-color:#D1D1D1"
   id="stop3348" />
</linearGradient>
<path
   fill="url(#SVGID_1_)"
   d="m 200.3705,39.893 c -88.365,0 -160,71.634 -160,160 0,88.365 71.635,159.279 160,159.279 88.365,0 159.667,-70.914 159.667,-159.279 0,-88.366 -71.302,-160 -159.667,-160 z"
   id="path3351"
   style="fill:url(#SVGID_1_)" />
<rect
   x="162.18649"
   y="205.50299"
   fill="#ffffff"
   width="2"
   height="1.999"
   id="rect3353" />
<path
   opacity="0.7"
   fill="#ffffff"
   d="m 68.9405,108.545 c 2.063,0.354 4.184,0.562 6.354,0.562 h 249.338 c 2.168,0 4.289,-0.21 6.351,-0.563 -28.939,-41.209 -76.812,-68.437 -130.986,-68.437 h -0.068 c -54.176,0 -102.051,27.229 -130.989,68.438 z m 131.057,-68.438 h -0.068 c 0.011,0 0.023,0 0.033,0 0.012,0 0.022,0 0.035,0 z"
   id="path3355" />
<path
   fill="#ffffff"
   d="m 199.9625,40.107 c -0.5,0 -0.999,0.015 -1.5,0.019 87.673,0.807 158.5,72.117 158.5,159.981 0,87.864 -70.827,159.174 -158.5,159.981 0.501,0.004 1,0.019 1.5,0.019 88.365,0 160,-71.635 160,-160 0,-88.365 -71.635,-160 -160,-160 z"
   id="path3357" />
<path
   fill="#58585a"
   d="m 199.9625,40.107 c -88.366,0 -160,71.635 -160,160 0,88.365 71.634,160 160,160 88.365,0 160,-71.635 160,-160 0,-88.365 -71.635,-160 -160,-160 z m 0,318 c -87.121,0 -158,-70.879 -158,-158 0,-87.122 70.879,-158 158,-158 87.121,0 158,70.878 158,158 0,87.121 -70.879,158 -158,158 z"
   id="path3359" />
<g
   id="g3367"
   transform="translate(-11.1645,10.107)">
	<path
   fill="#ffffff"
   d="m 210.072,70.005 c -67.258,0 -121.781,54.523 -121.781,121.781 0,1.881 0.049,3.75 0.133,5.61 h 84.927 v -15.957 c 0,0 -0.174,-34.445 35.562,-34.445 35.736,0 36.417,34.445 36.417,34.445 v 15.957 h 88.429 c 0.084,-1.86 0.133,-3.729 0.133,-5.61 0,-67.258 -56.562,-121.781 -123.82,-121.781 z m -0.731,68.827 c -13.314,0 -24.108,-10.793 -24.108,-24.107 0,-13.314 10.794,-24.108 24.108,-24.108 13.314,0 24.107,10.794 24.107,24.108 0,13.314 -10.793,24.107 -24.107,24.107 z"
   id="path3361" />
	<polygon
   fill="#ffffff"
   points="218.323,227.125 218.323,276.799 245.33,276.799 245.33,197.396 173.351,197.396 173.351,276.799 201.28,276.799 201.28,227.125 "
   id="polygon3363" />
	<polygon
   fill="#ffffff"
   points="218.323,227.125 218.323,276.799 247.338,276.799 247.277,197.396 173.351,197.396 173.351,276.799 203.312,276.799 203.312,227.125 "
   id="polygon3365" />
</g>
<g
   id="g3402"
   transform="translate(-11.1645,10.107)">
	<linearGradient
   id="SVGID_2_"
   gradientUnits="userSpaceOnUse"
   x1="114.7192"
   y1="264.65619"
   x2="286.94351"
   y2="92.431999">
		<stop
   offset="0"
   style="stop-color:#E9661E"
   id="stop3369" />
		<stop
   offset="0.5"
   style="stop-color:#F2961B"
   id="stop3371" />
		<stop
   offset="0.8202"
   style="stop-color:#F8B532"
   id="stop3373" />
		<stop
   offset="1"
   style="stop-color:#FAC03B"
   id="stop3375" />
	</linearGradient>
	<path
   fill="url(#SVGID_2_)"
   d="m 212.072,68.005 c -67.258,0 -121.781,54.523 -121.781,121.781 0,1.881 0.049,3.75 0.133,5.61 h 84.927 v -15.957 c 0,0 -0.174,-34.445 35.562,-34.445 35.736,0 36.417,34.445 36.417,34.445 v 15.957 h 86.391 c 0.084,-1.86 0.133,-3.729 0.133,-5.61 0,-67.258 -54.524,-121.781 -121.782,-121.781 z m -0.731,68.827 c -13.314,0 -24.108,-10.793 -24.108,-24.107 0,-13.314 10.794,-24.108 24.108,-24.108 13.314,0 24.107,10.794 24.107,24.108 0,13.314 -10.793,24.107 -24.107,24.107 z"
   id="path3378"
   style="fill:url(#SVGID_2_)" />
	<linearGradient
   id="SVGID_3_"
   gradientUnits="userSpaceOnUse"
   x1="148.2515"
   y1="298.18549"
   x2="320.4762"
   y2="125.9608">
		<stop
   offset="0"
   style="stop-color:#E9661E"
   id="stop3380" />
		<stop
   offset="0.5"
   style="stop-color:#F2961B"
   id="stop3382" />
		<stop
   offset="0.8202"
   style="stop-color:#F8B532"
   id="stop3384" />
		<stop
   offset="1"
   style="stop-color:#FAC03B"
   id="stop3386" />
	</linearGradient>
	<polygon
   fill="url(#SVGID_3_)"
   points="220.323,225.125 220.323,274.799 247.33,274.799 247.33,195.396 175.351,195.396 175.351,274.799 203.28,274.799 203.28,225.125 "
   id="polygon3389"
   style="fill:url(#SVGID_3_)" />
	<linearGradient
   id="SVGID_4_"
   gradientUnits="userSpaceOnUse"
   x1="173.4946"
   y1="272.94241"
   x2="282.10031"
   y2="164.3367">
		<stop
   offset="0"
   style="stop-color:#E9661E"
   id="stop3391" />
		<stop
   offset="0.5"
   style="stop-color:#F2961B"
   id="stop3393" />
		<stop
   offset="0.8202"
   style="stop-color:#F8B532"
   id="stop3395" />
		<stop
   offset="1"
   style="stop-color:#FAC03B"
   id="stop3397" />
	</linearGradient>
	<polygon
   fill="url(#SVGID_4_)"
   points="220.323,225.125 220.323,274.799 247.33,274.799 247.33,195.396 175.351,195.396 175.351,274.799 203.28,274.799 203.28,225.125 "
   id="polygon3400"
   style="fill:url(#SVGID_4_)" />
</g>
<path
   opacity="0.2"
   d="m 179.2575,109.949 c -0.373,0.293 -0.736,0.596 -1.09,0.911 -3.789,4.259 -6.094,9.866 -6.094,16.014 0,13.314 10.794,24.108 24.108,24.108 6.147,0 11.755,-2.305 16.014,-6.094 0.315,-0.354 0.617,-0.717 0.911,-1.089 0.295,-0.374 0.58,-0.756 0.853,-1.147 -3.905,2.726 -8.653,4.33 -13.777,4.33 -13.314,0 -24.108,-10.793 -24.108,-24.108 0,-5.125 1.604,-9.872 4.33,-13.778 -0.392,0.273 -0.774,0.558 -1.147,0.853 z"
   id="path3404" />
<path
   opacity="0.2"
   d="m 200.8895,78.111 c -34.138,0 -64.988,14.052 -87.101,36.681 -0.329,0.337 -0.662,0.671 -0.987,1.012 21.859,-20.874 51.477,-33.693 84.088,-33.693 67.258,0 121.781,54.523 121.781,121.781 0,0.539 -0.012,1.074 -0.02,1.61 h 1.957 1.93 c 0.084,-1.86 0.133,-3.729 0.133,-5.61 0,-67.257 -54.523,-121.781 -121.781,-121.781 z"
   id="path3406" />
<polygon
   opacity="0.2"
   points="175.339,195.396 175.339,197.396 175.339,199.396 241.318,199.396 243.318,199.396 243.318,201.396 243.318,274.798 245.318,274.798 247.318,274.798 247.318,201.396 247.318,199.396 247.318,197.396 247.318,195.396 245.318,195.396 243.318,195.396 241.318,195.396 "
   id="polygon3408"
   transform="translate(-11.1645,10.107)" />
<polygon
   opacity="0.2"
   points="199.312,231.125 199.312,274.798 201.312,274.798 203.312,274.798 203.312,231.125 203.312,229.125 203.312,227.125 201.312,227.125 201.312,229.125 199.312,229.125 "
   id="polygon3410"
   transform="translate(-11.1645,10.107)" />
<path
   opacity="0.2"
   d="m 179.2455,109.949 c -3.243,4.106 -5.184,9.287 -5.184,14.925 0,13.314 10.794,24.108 24.108,24.108 5.638,0 10.819,-1.94 14.925,-5.183 0.295,-0.374 0.58,-0.756 0.853,-1.147 -3.905,2.726 -8.653,4.33 -13.777,4.33 -13.314,0 -24.108,-10.793 -24.108,-24.108 0,-5.125 1.604,-9.872 4.33,-13.778 -0.392,0.273 -0.774,0.558 -1.147,0.853 z"
   id="path3412" />
<path
   opacity="0.2"
   d="m 200.9075,78.111 c -34.138,0 -64.988,14.052 -87.101,36.681 21.954,-21.453 51.98,-34.681 85.101,-34.681 67.258,0 121.781,54.523 121.781,121.781 0,1.208 -0.026,2.411 -0.062,3.61 h 1.93 c 0.084,-1.86 0.133,-3.729 0.133,-5.61 0,-67.257 -54.524,-121.781 -121.782,-121.781 z"
   id="path3414" />
<polygon
   opacity="0.2"
   points="175.327,195.396 175.327,197.396 241.307,197.396 243.307,197.396 245.307,197.396 245.307,199.396 245.307,201.396 245.307,274.798 247.307,274.798 247.307,201.396 247.307,199.396 247.307,197.396 247.307,195.396 245.307,195.396 243.307,195.396 241.307,195.396 "
   id="polygon3416"
   transform="translate(-11.1645,10.107)" />
<polygon
   opacity="0.2"
   points="203.3,274.798 203.3,229.212 203.3,227.125 201.3,227.125 201.3,229.212 201.3,274.798 "
   id="polygon3418"
   transform="translate(-11.1645,10.107)" />
<path
   opacity="0.2"
   d="m 170.3955,168.496 c -0.343,0.282 -0.683,0.564 -1.006,0.857 -9.256,10.152 -9.201,24.193 -9.201,24.193 v 11.956 h 2 2 v -15.956 c 0,0 -0.058,-12.082 7.316,-21.936 -0.384,0.287 -0.747,0.586 -1.109,0.886 z"
   id="path3420" />
<path
   opacity="0.2"
   d="m 162.1885,191.546 v 13.956 h 2 v -15.956 c 0,0 -0.058,-12.082 7.316,-21.936 -0.384,0.286 -0.747,0.585 -1.109,0.885 -8.259,10.031 -8.207,23.051 -8.207,23.051 z"
   id="path3422" />
<path
   opacity="0.2"
   d="m 236.1135,283.271 v -71.769 -2 -2 -2 h -2 -2 -2 -65.979 v 2 2 2 h 0.08 v 73.403 h 27.93 v -49.674 h 17.043 v 49.674 h 27.007 v -1.635 h -0.081 z m -6,0 h -19.295 v -49.674 h -20.683 v 3.635 h -0.028 v 2 h -2 v 2 h -2 v 42.039 h -20.261 v -71.769 h 64.268 v 71.769 z"
   id="path3424" />
<path
   opacity="0.2"
   d="m 226.0865,122.769 c 0,-14.327 -11.612,-25.94 -25.939,-25.94 -10.788,0 -20.036,6.587 -23.946,15.957 -3.831,4.267 -6.167,9.903 -6.167,16.088 0,13.314 10.794,24.108 24.108,24.108 6.334,0 12.093,-2.448 16.394,-6.444 9.153,-4.006 15.55,-13.139 15.55,-23.769 z m -25.939,24.108 c -13.314,0 -24.108,-10.793 -24.108,-24.108 0,-0.019 0.002,-0.038 0.002,-0.056 0.003,-0.545 0.023,-1.087 0.062,-1.623 0.006,-0.075 0.012,-0.149 0.018,-0.224 0.359,-4.354 1.877,-8.379 4.243,-11.77 -0.051,0.036 -0.099,0.075 -0.149,0.111 4.34,-6.366 11.647,-10.546 19.933,-10.546 13.314,0 24.107,10.793 24.107,24.108 0,13.315 -10.794,24.108 -24.108,24.108 z"
   id="path3426" />
<path
   opacity="0.2"
   d="m 200.8795,78.018 c -34.138,0 -64.988,14.053 -87.101,36.681 -0.329,0.337 -0.662,0.671 -0.987,1.012 -0.326,0.341 -0.645,0.689 -0.967,1.034 0.238,-0.223 0.481,-0.438 0.722,-0.659 -20.832,21.853 -33.622,51.441 -33.622,84.016 0,1.881 0.049,3.75 0.133,5.61 h 84.927 v -0.211 h 0.204 v -15.956 c 0,0 -0.058,-12.082 7.316,-21.936 -0.384,0.286 -0.747,0.585 -1.109,0.885 -0.343,0.282 -0.683,0.564 -1.006,0.857 -11.271,10.189 -11.201,26.193 -11.201,26.193 v 7.637 h -75.258 c -0.081,-1.77 -0.128,-3.548 -0.128,-5.337 0,-49.845 32.031,-92.333 76.969,-108.684 11.117,-3.343 22.902,-5.145 35.108,-5.145 66.382,0 120.348,53.117 121.741,119.166 h -80.657 v 2.53 h 86.391 c 0.005,-0.101 0.007,-0.203 0.011,-0.304 h 0.163 c 0.084,-1.86 0.133,-3.729 0.133,-5.61 -10e-4,-67.255 -54.524,-121.779 -121.782,-121.779 z"
   id="path3428" />
</svg>
