<?xml version="1.0" encoding="UTF-8" standalone="no"?>
<svg
   viewBox="0 0 177.271 92.604697"
   height="350"
   width="670"
   version="1.1"
   id="svg1460"
   sodipodi:docname="devices.svg"
   inkscape:version="1.2.1 (9c6d41e410, 2022-07-14)"
   xmlns:inkscape="http://www.inkscape.org/namespaces/inkscape"
   xmlns:sodipodi="http://sodipodi.sourceforge.net/DTD/sodipodi-0.dtd"
   xmlns="http://www.w3.org/2000/svg"
   xmlns:svg="http://www.w3.org/2000/svg">
  <sodipodi:namedview
     id="namedview1462"
     pagecolor="#ffffff"
     bordercolor="#000000"
     borderopacity="0.25"
     inkscape:showpageshadow="2"
     inkscape:pageopacity="0.0"
     inkscape:pagecheckerboard="0"
     inkscape:deskcolor="#d1d1d1"
     showgrid="false"
     inkscape:zoom="0.90852508"
     inkscape:cx="-5.5034254"
     inkscape:cy="187.66681"
     inkscape:window-width="1920"
     inkscape:window-height="986"
     inkscape:window-x="-11"
     inkscape:window-y="-11"
     inkscape:window-maximized="1"
     inkscape:current-layer="svg1460" />
  <defs
     id="defs1018">
    <clipPath
       id="b"
       clipPathUnits="userSpaceOnUse">
      <circle
         transform="rotate(-1.112)"
         r="27.174999"
         cy="713.797"
         cx="359.366"
         fill="#ff0000"
         stroke-width="7.508"
         stroke-linejoin="round"
         id="circle1012" />
    </clipPath>
    <clipPath
       id="a"
       clipPathUnits="userSpaceOnUse">
      <path
         fill="#ffffff"
         stroke-width="0.794"
         stroke-linejoin="round"
         d="m 4.536,364.469 h 208.076 v 90.714 H 4.536 Z"
         id="path1015" />
    </clipPath>
  </defs>
  <g
     transform="matrix(0.38913,0,0,0.38913,60.542,11.248697)"
     id="g1242">
    <rect
       ry="2.6459999"
       rx="2.6459999"
       y="179.334"
       x="296.04401"
       height="33.409"
       width="117.331"
       transform="translate(-202.117,-175.914)"
       fill="#8f8f8f"
       id="rect1020" />
    <rect
       ry="2.6459999"
       rx="2.6459999"
       y="179.334"
       x="298.78299"
       height="27.395"
       width="111.852"
       transform="translate(-202.117,-175.914)"
       id="rect1022" />
    <g
       fill="#ffffff"
       transform="rotate(15)"
       id="g1032">
      <rect
         ry="2.6459999"
         rx="2.6459999"
         y="-21.014"
         x="104.53"
         height="10.253"
         width="7.276"
         id="rect1024" />
      <rect
         ry="2.6459999"
         rx="2.6459999"
         y="-24.899"
         x="115.578"
         height="10.253"
         width="7.276"
         id="rect1026" />
      <rect
         ry="2.6459999"
         rx="2.6459999"
         y="-28.129"
         x="124.535"
         height="10.253"
         width="7.276"
         id="rect1028" />
      <rect
         ry="2.6459999"
         rx="2.6459999"
         y="-28.648001"
         x="134.21899"
         height="10.253"
         width="7.276"
         id="rect1030" />
    </g>
    <g
       transform="matrix(-0.96592583,0.25881905,0.25881905,0.96592583,289.21491,-0.84664558)"
       fill="#ffffff"
       id="g1042">
      <rect
         ry="2.6459999"
         rx="2.6459999"
         y="-16.105"
         x="89.822998"
         height="10.253"
         width="7.276"
         id="rect1034" />
      <rect
         ry="2.6459999"
         rx="2.6459999"
         y="-19.99"
         x="100.871"
         height="10.253"
         width="7.276"
         id="rect1036" />
      <rect
         ry="2.6459999"
         rx="2.6459999"
         y="-23.219999"
         x="109.829"
         height="10.253"
         width="7.276"
         id="rect1038" />
      <rect
         ry="2.6459999"
         rx="2.6459999"
         y="-23.739"
         x="119.512"
         height="10.253"
         width="7.276"
         id="rect1040" />
    </g>
    <g
       fill="#ffffff"
       id="g1064">
      <g
         transform="translate(0,-0.156)"
         id="g1052">
        <circle
           cx="105.204"
           cy="21.412001"
           r="0.80199999"
           id="circle1044" />
        <circle
           cx="105.204"
           cy="23.572001"
           r="0.80199999"
           id="circle1046" />
        <circle
           cx="105.204"
           cy="25.733"
           r="0.80199999"
           id="circle1048" />
        <circle
           cx="105.204"
           cy="27.893"
           r="0.80199999"
           id="circle1050" />
      </g>
      <g
         transform="translate(0,-0.156)"
         id="g1062">
        <circle
           cx="107.409"
           cy="21.378"
           r="0.80199999"
           id="circle1054" />
        <circle
           cx="107.409"
           cy="23.539"
           r="0.80199999"
           id="circle1056" />
        <circle
           cx="107.409"
           cy="25.698999"
           r="0.80199999"
           id="circle1058" />
        <circle
           cx="107.409"
           cy="27.860001"
           r="0.80199999"
           id="circle1060" />
      </g>
    </g>
    <g
       fill="#ffffff"
       id="g1086">
      <g
         transform="translate(7.842,-0.156)"
         id="g1074">
        <circle
           cx="105.204"
           cy="21.412001"
           r="0.80199999"
           id="circle1066" />
        <circle
           cx="105.204"
           cy="23.572001"
           r="0.80199999"
           id="circle1068" />
        <circle
           cx="105.204"
           cy="25.733"
           r="0.80199999"
           id="circle1070" />
        <circle
           cx="105.204"
           cy="27.893"
           r="0.80199999"
           id="circle1072" />
      </g>
      <g
         transform="translate(7.842,-0.156)"
         id="g1084">
        <circle
           cx="107.409"
           cy="21.378"
           r="0.80199999"
           id="circle1076" />
        <circle
           cx="107.409"
           cy="23.539"
           r="0.80199999"
           id="circle1078" />
        <circle
           cx="107.409"
           cy="25.698999"
           r="0.80199999"
           id="circle1080" />
        <circle
           cx="107.409"
           cy="27.860001"
           r="0.80199999"
           id="circle1082" />
      </g>
    </g>
    <g
       fill="#ffffff"
       id="g1108">
      <g
         transform="translate(31.088,-0.156)"
         id="g1096">
        <circle
           cx="105.204"
           cy="21.412001"
           r="0.80199999"
           id="circle1088" />
        <circle
           cx="105.204"
           cy="23.572001"
           r="0.80199999"
           id="circle1090" />
        <circle
           cx="105.204"
           cy="25.733"
           r="0.80199999"
           id="circle1092" />
        <circle
           cx="105.204"
           cy="27.893"
           r="0.80199999"
           id="circle1094" />
      </g>
      <g
         transform="translate(31.088,-0.156)"
         id="g1106">
        <circle
           cx="107.409"
           cy="21.378"
           r="0.80199999"
           id="circle1098" />
        <circle
           cx="107.409"
           cy="23.539"
           r="0.80199999"
           id="circle1100" />
        <circle
           cx="107.409"
           cy="25.698999"
           r="0.80199999"
           id="circle1102" />
        <circle
           cx="107.409"
           cy="27.860001"
           r="0.80199999"
           id="circle1104" />
      </g>
    </g>
    <g
       fill="#ffffff"
       id="g1130">
      <g
         transform="translate(38.86,-0.156)"
         id="g1118">
        <circle
           cx="105.204"
           cy="21.412001"
           r="0.80199999"
           id="circle1110" />
        <circle
           cx="105.204"
           cy="23.572001"
           r="0.80199999"
           id="circle1112" />
        <circle
           cx="105.204"
           cy="25.733"
           r="0.80199999"
           id="circle1114" />
        <circle
           cx="105.204"
           cy="27.893"
           r="0.80199999"
           id="circle1116" />
      </g>
      <g
         transform="translate(38.86,-0.156)"
         id="g1128">
        <circle
           cx="107.409"
           cy="21.378"
           r="0.80199999"
           id="circle1120" />
        <circle
           cx="107.409"
           cy="23.539"
           r="0.80199999"
           id="circle1122" />
        <circle
           cx="107.409"
           cy="25.698999"
           r="0.80199999"
           id="circle1124" />
        <circle
           cx="107.409"
           cy="27.860001"
           r="0.80199999"
           id="circle1126" />
      </g>
    </g>
    <g
       fill="#ffffff"
       id="g1152">
      <g
         transform="translate(46.632,-0.156)"
         id="g1140">
        <circle
           cx="105.204"
           cy="21.412001"
           r="0.80199999"
           id="circle1132" />
        <circle
           cx="105.204"
           cy="23.572001"
           r="0.80199999"
           id="circle1134" />
        <circle
           cx="105.204"
           cy="25.733"
           r="0.80199999"
           id="circle1136" />
        <circle
           cx="105.204"
           cy="27.893"
           r="0.80199999"
           id="circle1138" />
      </g>
      <g
         transform="translate(46.632,-0.156)"
         id="g1150">
        <circle
           cx="107.409"
           cy="21.378"
           r="0.80199999"
           id="circle1142" />
        <circle
           cx="107.409"
           cy="23.539"
           r="0.80199999"
           id="circle1144" />
        <circle
           cx="107.409"
           cy="25.698999"
           r="0.80199999"
           id="circle1146" />
        <circle
           cx="107.409"
           cy="27.860001"
           r="0.80199999"
           id="circle1148" />
      </g>
    </g>
    <g
       fill="#ffffff"
       id="g1174">
      <g
         transform="translate(54.404,-0.156)"
         id="g1162">
        <circle
           cx="105.204"
           cy="21.412001"
           r="0.80199999"
           id="circle1154" />
        <circle
           cx="105.204"
           cy="23.572001"
           r="0.80199999"
           id="circle1156" />
        <circle
           cx="105.204"
           cy="25.733"
           r="0.80199999"
           id="circle1158" />
        <circle
           cx="105.204"
           cy="27.893"
           r="0.80199999"
           id="circle1160" />
      </g>
      <g
         transform="translate(54.404,-0.156)"
         id="g1172">
        <circle
           cx="107.409"
           cy="21.378"
           r="0.80199999"
           id="circle1164" />
        <circle
           cx="107.409"
           cy="23.539"
           r="0.80199999"
           id="circle1166" />
        <circle
           cx="107.409"
           cy="25.698999"
           r="0.80199999"
           id="circle1168" />
        <circle
           cx="107.409"
           cy="27.860001"
           r="0.80199999"
           id="circle1170" />
      </g>
    </g>
    <g
       fill="#ffffff"
       id="g1196">
      <g
         transform="translate(62.176,-0.156)"
         id="g1184">
        <circle
           cx="105.204"
           cy="21.412001"
           r="0.80199999"
           id="circle1176" />
        <circle
           cx="105.204"
           cy="23.572001"
           r="0.80199999"
           id="circle1178" />
        <circle
           cx="105.204"
           cy="25.733"
           r="0.80199999"
           id="circle1180" />
        <circle
           cx="105.204"
           cy="27.893"
           r="0.80199999"
           id="circle1182" />
      </g>
      <g
         transform="translate(62.176,-0.156)"
         id="g1194">
        <circle
           cx="107.409"
           cy="21.378"
           r="0.80199999"
           id="circle1186" />
        <circle
           cx="107.409"
           cy="23.539"
           r="0.80199999"
           id="circle1188" />
        <circle
           cx="107.409"
           cy="25.698999"
           r="0.80199999"
           id="circle1190" />
        <circle
           cx="107.409"
           cy="27.860001"
           r="0.80199999"
           id="circle1192" />
      </g>
    </g>
    <g
       fill="#ffffff"
       id="g1218">
      <g
         transform="translate(84.784,-0.156)"
         id="g1206">
        <circle
           cx="105.204"
           cy="21.412001"
           r="0.80199999"
           id="circle1198" />
        <circle
           cx="105.204"
           cy="23.572001"
           r="0.80199999"
           id="circle1200" />
        <circle
           cx="105.204"
           cy="25.733"
           r="0.80199999"
           id="circle1202" />
        <circle
           cx="105.204"
           cy="27.893"
           r="0.80199999"
           id="circle1204" />
      </g>
      <g
         transform="translate(84.784,-0.156)"
         id="g1216">
        <circle
           cx="107.409"
           cy="21.378"
           r="0.80199999"
           id="circle1208" />
        <circle
           cx="107.409"
           cy="23.539"
           r="0.80199999"
           id="circle1210" />
        <circle
           cx="107.409"
           cy="25.698999"
           r="0.80199999"
           id="circle1212" />
        <circle
           cx="107.409"
           cy="27.860001"
           r="0.80199999"
           id="circle1214" />
      </g>
    </g>
    <g
       fill="#ffffff"
       id="g1240">
      <g
         transform="translate(92.627,-0.156)"
         id="g1228">
        <circle
           cx="105.204"
           cy="21.412001"
           r="0.80199999"
           id="circle1220" />
        <circle
           cx="105.204"
           cy="23.572001"
           r="0.80199999"
           id="circle1222" />
        <circle
           cx="105.204"
           cy="25.733"
           r="0.80199999"
           id="circle1224" />
        <circle
           cx="105.204"
           cy="27.893"
           r="0.80199999"
           id="circle1226" />
      </g>
      <g
         transform="translate(92.627,-0.156)"
         id="g1238">
        <circle
           cx="107.409"
           cy="21.378"
           r="0.80199999"
           id="circle1230" />
        <circle
           cx="107.409"
           cy="23.539"
           r="0.80199999"
           id="circle1232" />
        <circle
           cx="107.409"
           cy="25.698999"
           r="0.80199999"
           id="circle1234" />
        <circle
           cx="107.409"
           cy="27.860001"
           r="0.80199999"
           id="circle1236" />
      </g>
    </g>
  </g>
  <path
     d="m 127.967,27.216697 c 0,0.549 -0.412,0.995 -0.961,0.995 -0.55,0 -0.961,-0.446 -0.961,-0.995 v -7.722 c 0,-0.55 0.412,-0.995 0.96,-0.995 0.55,0 0.962,0.446 0.962,0.995 z"
     fill="#f4cfb2"
     id="path1244" />
  <path
     d="m 133.458,25.603697 h -5.834 c -0.893,0 -1.58,0.72 -1.58,1.613 v 4.633 l 2.129,3.157 h 5.182 c 0.858,0 1.579,-0.72 1.579,-1.579 v -6.211 c 0,-0.893 -0.584,-1.613 -1.476,-1.613 z"
     fill="#f4cfb2"
     id="path1246" />
  <path
     d="m 128.447,27.936697 c -0.926,0 -1.75,0.378 -2.402,0.927 l -2.334,-3.466 c -0.343,-0.48 -0.995,-0.618 -1.475,-0.275 -0.515,0.309 -0.618,0.995 -0.31,1.476 l 5.423,7.962 c 0.206,0.274 0.515,0.412 0.824,0.446 h 0.274 c 1.922,0 3.535,-1.579 3.535,-3.535 a 3.53,3.53 0 0 0 -3.535,-3.535 z m -0.755,-8.03 v -0.618 c 0,-0.24 -0.171,-0.446 -0.412,-0.446 h -0.549 a 0.454,0.454 0 0 0 -0.446,0.446 v 0.618 z"
     fill="#f4cfb2"
     id="path1248" />
  <path
     d="m 130.3,27.216697 c 0,0.549 -0.446,0.995 -0.995,0.995 -0.515,0 -0.96,-0.446 -0.96,-0.995 v -7.722 c 0,-0.55 0.445,-0.995 0.96,-0.995 0.55,0 0.996,0.446 0.996,0.995 z"
     fill="#f4cfb2"
     id="path1250" />
  <path
     d="m 130.026,19.906697 v -0.618 a 0.454,0.454 0 0 0 -0.446,-0.446 h -0.55 c -0.24,0 -0.411,0.206 -0.411,0.446 v 0.618 z m 2.574,7.31 c 0,0.549 -0.446,0.995 -0.961,0.995 a 0.996,0.996 0 0 1 -0.995,-0.995 v -7.722 c 0,-0.55 0.446,-0.995 0.995,-0.995 0.515,0 0.96,0.446 0.96,0.995 z"
     fill="#f4cfb2"
     id="path1252" />
  <path
     d="m 132.325,19.906697 v -0.618 a 0.454,0.454 0 0 0 -0.446,-0.446 h -0.515 a 0.454,0.454 0 0 0 -0.446,0.446 v 0.618 z m 2.609,7.31 c 0,0.549 -0.447,0.995 -0.996,0.995 -0.514,0 -0.96,-0.446 -0.96,-0.995 v -7.722 c 0,-0.55 0.446,-0.995 0.96,-0.995 0.55,0 0.996,0.446 0.996,0.995 z"
     fill="#f4cfb2"
     id="path1254" />
  <path
     d="m 134.625,19.906697 v -0.618 c 0,-0.24 -0.172,-0.446 -0.412,-0.446 h -0.55 a 0.454,0.454 0 0 0 -0.445,0.446 v 0.618 z m -6.624,18.36 c 1.236,0.206 2.06,0.755 3.363,0.755 0.721,0 1.922,-0.034 2.643,-0.103 v -4.358 h -6.006 z"
     fill="#f4cfb2"
     id="path1256" />
  <path
     d="m 134.796,39.639697 h -7.035 v -2.3 h 7.035 z"
     fill="#d6d6d6"
     id="path1258" />
  <path
     d="m 135.62,87.847697 h -7.86 v -48.482 h 7.86 z"
     fill="#50be87"
     id="path1260" />
  <path
     d="m 133.012,41.424697 c 0,0.48 0.412,0.892 0.892,0.892 0.48,0 0.858,-0.412 0.858,-0.892 a 0.85,0.85 0 0 0 -0.858,-0.858 c -0.48,0 -0.892,0.377 -0.892,0.858 z"
     id="path1262" />
  <path
     d="m 112.05,27.216697 c 0,0.549 0.412,0.995 0.961,0.995 0.55,0 0.961,-0.446 0.961,-0.995 v -7.722 c 0,-0.55 -0.412,-0.995 -0.96,-0.995 -0.55,0 -0.962,0.446 -0.962,0.995 z"
     fill="#f4cfb2"
     id="path1264" />
  <path
     d="m 106.56,25.603697 h 5.833 c 0.893,0 1.579,0.72 1.579,1.613 v 4.633 l -2.128,3.157 h -5.182 c -0.858,0 -1.579,-0.72 -1.579,-1.579 v -6.211 c 0,-0.893 0.584,-1.613 1.476,-1.613 z"
     fill="#f4cfb2"
     id="path1266" />
  <path
     d="m 111.57,27.936697 c 0.926,0 1.75,0.378 2.402,0.927 l 2.334,-3.466 c 0.343,-0.48 0.995,-0.618 1.475,-0.275 0.515,0.309 0.618,0.995 0.31,1.476 l -5.423,7.962 a 1.172,1.172 0 0 1 -0.824,0.446 h -0.274 c -1.922,0 -3.535,-1.579 -3.535,-3.535 a 3.53,3.53 0 0 1 3.535,-3.535 z m 0.755,-8.03 v -0.618 c 0,-0.24 0.171,-0.446 0.412,-0.446 h 0.549 c 0.24,0 0.446,0.206 0.446,0.446 v 0.618 z"
     fill="#f4cfb2"
     id="path1268" />
  <path
     d="m 109.716,27.216697 c 0,0.549 0.447,0.995 0.996,0.995 0.514,0 0.96,-0.446 0.96,-0.995 v -7.722 c 0,-0.55 -0.446,-0.995 -0.96,-0.995 a 0.996,0.996 0 0 0 -0.996,0.995 z"
     fill="#f4cfb2"
     id="path1270" />
  <path
     d="m 109.991,19.906697 v -0.618 c 0,-0.24 0.206,-0.446 0.446,-0.446 h 0.55 c 0.24,0 0.411,0.206 0.411,0.446 v 0.618 z m -2.574,7.31 c 0,0.549 0.446,0.995 0.961,0.995 0.55,0 0.995,-0.446 0.995,-0.995 v -7.722 a 0.996,0.996 0 0 0 -0.995,-0.995 c -0.515,0 -0.96,0.446 -0.96,0.995 z"
     fill="#f4cfb2"
     id="path1272" />
  <path
     d="m 107.692,19.906697 v -0.618 c 0,-0.24 0.206,-0.446 0.446,-0.446 h 0.515 c 0.24,0 0.446,0.206 0.446,0.446 v 0.618 z m -2.609,7.31 c 0,0.549 0.447,0.995 0.996,0.995 0.514,0 0.96,-0.446 0.96,-0.995 v -7.722 c 0,-0.55 -0.446,-0.995 -0.96,-0.995 a 0.996,0.996 0 0 0 -0.996,0.995 z"
     fill="#f4cfb2"
     id="path1274" />
  <path
     d="m 105.392,19.906697 v -0.618 c 0,-0.24 0.172,-0.446 0.412,-0.446 h 0.55 c 0.24,0 0.445,0.206 0.445,0.446 v 0.618 z m 6.624,18.36 c -1.236,0.206 -2.06,0.755 -3.363,0.755 -0.721,0 -1.922,-0.034 -2.643,-0.103 v -4.358 h 6.006 z"
     fill="#f4cfb2"
     id="path1276" />
  <path
     d="m 105.22,39.639697 h 7.036 v -2.3 h -7.035 z"
     fill="#d6d6d6"
     id="path1278" />
  <path
     d="m 104.397,72.412697 h 7.859 v -33.047 h -7.859 z"
     fill="#50be87"
     id="path1280" />
  <path
     d="m 107.005,41.424697 c 0,0.48 -0.412,0.892 -0.892,0.892 -0.48,0 -0.858,-0.412 -0.858,-0.892 a 0.85,0.85 0 0 1 0.858,-0.858 c 0.48,0 0.892,0.377 0.892,0.858 z"
     id="path1282" />
  <g
     id="g1322"
     transform="translate(0,5.258697)">
    <path
       d="m 149.125,62.733 a 1.754,1.754 0 0 1 -2.402,0.652 l -5.629,-3.398 a 1.794,1.794 0 0 1 -0.652,-2.437 l 2.368,-4.118 a 1.794,1.794 0 0 1 2.437,-0.652 l 5.628,3.398 a 1.794,1.794 0 0 1 0.652,2.436 z"
       fill="#f4cfb2"
       id="path1284" />
    <path
       d="m 142.467,52.471 -2.3,-0.515 v 5.32 c 0,0.96 0.79,1.716 1.75,1.716 h 3.193 c 0.205,-0.55 0.308,-1.167 0.308,-1.785 0,-2.093 -1.2,-3.912 -2.951,-4.736 z"
       fill="#f4cfb2"
       id="path1286" />
    <path
       d="m 142.467,58.683 c 0,0.652 -0.515,1.167 -1.133,1.167 v 0.137 c -0.652,0 -1.166,-0.652 -1.166,-1.304 v -9.575 c 0,-0.618 0.514,-1.133 1.166,-1.133 0.618,0 1.133,0.515 1.133,1.133 z"
       fill="#f4cfb2"
       id="path1288" />
    <path
       d="m 142.158,49.691 v -0.72 a 0.505,0.505 0 0 0 -0.515,-0.515 h -0.617 c -0.31,0 -0.515,0.206 -0.515,0.515 v 0.72 z"
       fill="#f4cfb2"
       id="path1290" />
    <path
       d="m 165.873,57.825 c 0,0.72 -0.584,1.338 -1.305,1.338 h -20.763 a 1.34,1.34 0 0 1 -1.338,-1.338 v -15.58 c 0,-0.756 0.583,-1.34 1.338,-1.34 h 20.763 c 0.721,0 1.305,0.584 1.305,1.34 z"
       id="path1292" />
    <path
       d="M 165.29,57.207 H 143.05 V 42.45 h 22.24 z"
       fill="#ffffff"
       id="path1294" />
    <path
       fill="#ff7900"
       d="m 143.462,42.862 h 21.467 V 56.77 h -21.467 z"
       id="path1296" />
    <path
       d="m 147.443,68.224 h -6.314 v -8.752 h 6.314 z"
       fill="#f4cfb2"
       id="path1298" />
    <path
       d="m 147.683,66.714 h -6.795 v -2.231 h 6.795 z"
       fill="#ff7900"
       id="path1300" />
    <path
       d="m 147.924,87.346 h -7.276 V 66.473 h 7.276 z"
       fill="#a885d8"
       id="path1302" />
    <path
       d="m 146.928,67.983 c 0,0.412 -0.343,0.721 -0.72,0.721 a 0.725,0.725 0 0 1 -0.72,-0.72 c 0,-0.378 0.342,-0.687 0.72,-0.687 0.377,0 0.72,0.309 0.72,0.686 z"
       fill="#ffffff"
       id="path1304" />
    <path
       d="m 160.004,58.573 c 0.069,0.583 -0.309,1.132 -0.892,1.235 a 1.097,1.097 0 0 1 -1.27,-0.892 l -1.373,-8.51 a 1.115,1.115 0 0 1 0.892,-1.27 1.106,1.106 0 0 1 1.236,0.926 z m 2.574,-0.446 a 1.097,1.097 0 0 1 -0.892,1.27 1.106,1.106 0 0 1 -1.236,-0.927 l -0.274,-1.647 c -0.103,-0.584 0.308,-1.133 0.892,-1.236 0.583,-0.103 1.132,0.31 1.235,0.893 z m 2.608,-0.412 c 0.103,0.583 -0.309,1.133 -0.892,1.235 a 1.097,1.097 0 0 1 -1.27,-0.892 l -0.274,-1.647 c -0.07,-0.618 0.308,-1.167 0.926,-1.27 a 1.106,1.106 0 0 1 1.236,0.927 z m 2.574,-0.412 c 0.103,0.584 -0.309,1.133 -0.892,1.236 -0.584,0.103 -1.133,-0.31 -1.236,-0.893 l -0.274,-1.681 c -0.103,-0.584 0.309,-1.133 0.892,-1.236 0.583,-0.103 1.167,0.31 1.236,0.893 z"
       fill="#f4cfb2"
       id="path1306" />
    <path
       d="m 165.735,55.793 -6.417,1.064 c -0.961,0.137 -1.613,1.064 -1.476,2.025 l 0.858,5.113 2.883,3.055 5.834,-0.927 a 1.816,1.816 0 0 0 1.476,-2.059 l -1.133,-6.795 c -0.137,-0.961 -1.064,-1.613 -2.025,-1.476 z"
       fill="#f4cfb2"
       id="path1308" />
    <path
       d="m 160.622,59.26 a 4.042,4.042 0 0 0 -2.437,1.44 l -3.226,-3.397 a 1.224,1.224 0 0 0 -1.682,-0.034 c -0.48,0.446 -0.48,1.201 -0.034,1.681 l 7.379,7.757 c 0.24,0.274 0.617,0.411 0.995,0.343 h 0.103 c 0.034,0 0.103,-0.035 0.172,-0.035 2.127,-0.343 3.603,-2.368 3.26,-4.495 -0.378,-2.162 -2.368,-3.604 -4.53,-3.26 z m -2.231,-8.718 -0.137,-0.652 c -0.035,-0.274 -0.275,-0.446 -0.55,-0.412 l -0.583,0.103 c -0.274,0.035 -0.446,0.275 -0.412,0.55 l 0.103,0.686 z"
       fill="#f4cfb2"
       id="path1310" />
    <path
       d="m 153.243,58.95 0.584,0.618 1.063,-1.064 -0.583,-0.617 c -0.24,-0.24 -0.618,-0.24 -0.892,0 l -0.48,0.48 c 0.034,0.206 0.137,0.412 0.308,0.583 z m 14.62,13.522 h -6.349 v -8.751 h 6.35 z"
       fill="#f4cfb2"
       id="path1312" />
    <path
       d="m 168.24,71.443 h -6.76 v -2.231 h 6.76 z"
       fill="#ff7900"
       id="path1314" />
    <path
       d="m 168.48,87.346 h -7.24 V 71.202 h 7.24 z"
       fill="#a885d8"
       id="path1316" />
    <path
       d="m 163.367,72.712 c 0,0.412 -0.309,0.721 -0.72,0.721 -0.378,0 -0.687,-0.309 -0.687,-0.72 0,-0.378 0.31,-0.687 0.687,-0.687 0.411,0 0.72,0.309 0.72,0.686 z"
       fill="#ffffff"
       id="path1318" />
    <path
       d="m 152.328,47.721 v 4.189 l 3.683,-2.126 z"
       stroke="#000000"
       stroke-width="0.102965"
       id="path1320" />
  </g>
  <g
     id="g1348"
     transform="translate(0,5.258697)">
    <path
       d="m 49.125,67.88 h 68.29 v 5.05 h -68.29 z m 3.084,-29.513 h 62.093 a 3.106,3.106 0 0 1 3.113,3.113 v 28.338 a 3.106,3.106 0 0 1 -3.113,3.113 H 52.21 A 3.106,3.106 0 0 1 49.097,69.818 V 41.48 a 3.106,3.106 0 0 1 3.113,-3.113 z"
       fill="#020004"
       id="path1324" />
    <path
       fill="#ffffff"
       d="m 51.535,40.776 h 63.441 V 70.521 H 51.535 Z"
       id="path1326" />
    <path
       d="M 193.354,307.71 H 17.859 v -12.978 h 175.495 z m -7.925,75.847 H 25.86 c -4.432,0 -8,-3.568 -8,-8 v -72.825 c 0,-4.432 3.568,-8 8,-8 h 159.57 c 4.432,0 8,3.568 8,8 v 72.825 c 0,4.432 -3.568,8 -8,8 z"
       clip-path="url(#a)"
       transform="matrix(0.38913,0,0,0.38913,42.146,-68.925)"
       fill="#8f8f8f"
       id="path1328" />
    <path
       d="m 75.828,80.181 h 14.856 v 6.03 H 75.828 Z"
       id="path1330" />
    <path
       fill="#8f8f8f"
       d="m 73.585,86.064 h 19.341 v 1.25 H 73.585 Z"
       id="path1332" />
    <path
       d="M 80.812,75.096 H 85.7 v 2.808 h -4.888 z"
       id="path1334" />
    <path
       fill="#cccccc"
       d="m 55.013,42.63 h 57.243 V 69.468 H 55.013 Z"
       id="path1336" />
    <path
       fill="#e6e6e6"
       d="m 55.013,42.63 h 6.903 v 1.806 h -6.903 z m 0,1.807 h 57.243 V 69.469 H 55.013 Z"
       id="path1338" />
    <path
       fill="#ffffff"
       d="m 55.925,45.18 h 55.419 v 1.876 h -55.42 z m 0,2.434 h 55.419 V 68.54 h -55.42 z"
       id="path1340" />
    <path
       fill="#50bf88"
       d="M 56.954,48.85 H 74.72 v 8.882 H 56.954 Z"
       id="path1342" />
    <path
       fill="#115ab9"
       d="M 56.954,58.556 H 74.72 v 8.882 H 56.954 Z"
       id="path1344" />
    <path
       d="m 75.543,48.85 h 27.984 v 0.647 H 75.543 Z m 0,1.059 h 32.249 v 0.647 h -32.25 z m 0,1.059 h 15.482 v 0.647 H 75.543 Z m 0,1.059 h 13.055 v 0.647 H 75.543 Z m 0,2.94 h 27.984 v 0.647 H 75.543 Z m 0,1.059 h 32.249 v 0.647 h -32.25 z m 0,1.059 h 15.482 v 0.647 H 75.543 Z m 0,1.676 H 106.1 v 0.648 H 75.543 Z m 0,1.059 h 15.482 v 0.648 H 75.543 Z"
       id="path1346" />
  </g>
  <g
     id="g1380"
     transform="translate(0,5.258697)">
    <path
       d="m 116.115,77.512 c 0,0 1.435,1.654 7.406,-5.068 0.479,-0.54 0.447,-1.485 -0.143,-2.01 l -3.669,-3.259 c -0.59,-0.524 -2.768,-0.48 -3.077,0.209 l -2.456,5.486 c -0.322,0.72 1.015,3.822 1.94,4.642 z"
       fill="#714e46"
       id="path1350" />
    <path
       d="m 119.558,70.13 c 0.488,0.432 1.214,0.39 1.625,-0.073 a 1.157,1.157 0 0 0 -0.098,-1.647 l -3.746,-3.328 c -0.462,-0.41 -1.188,-0.367 -1.621,0.12 a 1.143,1.143 0 0 0 0.094,1.6 z"
       fill="#714e46"
       id="path1352" />
    <path
       d="m 135.296,57.519 0.957,-1.078 -1.129,-1.003 -0.957,1.078 z"
       fill="#d6d6d6"
       id="path1354" />
    <path
       fill="#714e46"
       d="m 118.415,76.944 4.21,-4.75 2.722,2.412 -4.211,4.75 z"
       id="path1356" />
    <path
       d="m 123.508,79.315 a 0.47,0.47 0 0 1 0.04,0.679 0.49,0.49 0 0 1 -0.678,0.04 c -0.18,-0.16 -0.2,-0.5 -0.04,-0.679 a 0.49,0.49 0 0 1 0.678,-0.04 z m 1,0.889 a 0.47,0.47 0 0 1 0.04,0.678 0.49,0.49 0 0 1 -0.678,0.04 c -0.18,-0.159 -0.174,-0.475 -0.014,-0.655 0.182,-0.205 0.473,-0.222 0.652,-0.063 z m 1.027,0.912 c 0.18,0.16 0.197,0.45 0.014,0.655 -0.16,0.18 -0.473,0.223 -0.652,0.063 a 0.49,0.49 0 0 1 -0.04,-0.678 0.47,0.47 0 0 1 0.678,-0.04 z"
       fill="#ff8ad4"
       id="path1358" />
    <path
       d="m 107.845,53.692 c 3.258,3.014 3.526,8.046 0.6,11.3 -3.01,3.346 -8.041,3.614 -11.3,0.6 -3.342,-2.921 -3.609,-7.953 -0.6,-11.3 2.926,-3.254 7.958,-3.52 11.3,-0.6 z"
       fill="#ffffff"
       id="path1360" />
    <path
       d="m 95.528,53.46 c -3.428,3.812 -3.114,9.727 0.698,13.154 3.811,3.427 9.726,3.113 13.242,-0.703 3.427,-3.811 3.113,-9.726 -0.699,-13.153 -3.9,-3.423 -9.814,-3.109 -13.241,0.703 z m 12.27,11.035 c -2.679,2.886 -7.18,3.125 -10.063,0.534 A 7.15,7.15 0 0 1 97.196,54.877 c 2.592,-2.882 7.094,-3.12 10.064,-0.534 a 7.15,7.15 0 0 1 0.539,10.152 z"
       fill="#8f8f8f"
       id="path1362" />
    <path
       d="m 121.705,74.645 -2.252,2.598 -12.178,-10.95 2.257,-2.51 z"
       fill="#8f8f8f"
       id="path1364" />
    <path
       d="m 123.21,74.654 -3.677,4.09 -10.04,-9.028 3.677,-4.09 z"
       id="path1366" />
    <g
       clip-path="url(#b)"
       transform="matrix(0.26515,0.00515,-0.00515,0.26515,7.173,-129.65)"
       id="g1372">
      <path
         d="m 390.367,698.057 -46.326,0.772 -0.078,-5.333 46.326,-0.772 z m -5.6,10.304 -46.326,0.772 -0.078,-5.333 46.326,-0.771 z"
         id="path1368" />
      <path
         d="m 384.961,708.407 -46.325,0.772 -0.078,-5.333 46.326,-0.772 z m 5.727,10.133 -48.243,0.81 -0.077,-5.334 48.243,-0.808 z"
         id="path1370" />
    </g>
    <g
       fill="#714e46"
       id="g1376">
      <path
         d="m 115.03,73.572 c 0.423,-0.39 0.434,-1.097 0.044,-1.52 a 1.084,1.084 0 0 0 -1.52,-0.042 l -1.14,1.086 c -0.44,0.42 -0.463,1.08 -0.043,1.52 0.39,0.422 1.08,0.462 1.52,0.042 z m 4.204,2.908 c 0.44,-0.42 0.434,-1.097 0.043,-1.52 a 1.057,1.057 0 0 0 -1.52,-0.043 l -1.805,1.693 c -0.44,0.42 -0.463,1.08 -0.043,1.52 0.39,0.423 1.08,0.463 1.52,0.043 z m -5.882,-4.768 c 0.422,-0.39 0.433,-1.097 0.043,-1.52 a 1.084,1.084 0 0 0 -1.52,-0.043 l -1.14,1.086 c -0.44,0.42 -0.463,1.08 -0.042,1.52 0.39,0.423 1.08,0.463 1.52,0.043 z m 4.021,3.1 c 0.44,-0.42 0.433,-1.096 0.042,-1.519 a 1.057,1.057 0 0 0 -1.52,-0.043 l -1.805,1.693 c -0.44,0.42 -0.463,1.08 -0.043,1.52 0.39,0.422 1.08,0.463 1.52,0.043 z"
         id="path1374" />
    </g>
    <path
       d="m 117.003,66.83 a 1.084,1.084 0 0 0 -0.174,-1.51 1.057,1.057 0 0 0 -1.51,0.174 l -1.546,1.934 a 1.057,1.057 0 0 0 0.175,1.51 1.071,1.071 0 0 0 1.51,-0.175 z"
       fill="#714e46"
       id="path1378" />
  </g>
  <g
     fill="#ffb4e6"
     id="g1386"
     transform="translate(0,5.258697)">
    <path
       d="m 126.65,75.056 -4.931,5.717 -1.716,-1.48 4.932,-5.716 z"
       id="path1382" />
    <path
       d="m 127.537,74.72 a 1.89,1.89 0 0 0 -1.472,0.647 l -3.99,4.626 a 1.882,1.882 0 0 0 0.196,2.662 l 5.438,4.691 h 15.132 L 128.727,75.171 a 1.873,1.873 0 0 0 -1.19,-0.452 z"
       id="path1384" />
  </g>
  <path
     d="m 21.762,43.265697 c 0,0.789 1.58,0.96 1.58,2.196 0,0 -2.678,3.329 -11.635,3.329 a 1.413,1.413 0 0 1 -1.407,-1.407 v -5.525 c 0,-0.79 0.618,-1.408 1.407,-1.408 h 6.83 c 0.789,0 1.406,0.618 1.406,1.408 z"
     fill="#f4cfb2"
     id="path1388" />
  <path
     d="m 12.565,40.519697 -2.3,-0.515 v 5.32 c 0,0.96 0.79,1.75 1.75,1.75 h 3.227 c 0.206,-0.55 0.309,-1.167 0.309,-1.785 0,-2.093 -1.236,-3.912 -2.986,-4.77 z"
     fill="#f4cfb2"
     id="path1390" />
  <path
     d="m 22.174,44.123697 c -0.034,2.814 -4.118,2.814 -4.839,2.814 -0.72,0 -4.77,-0.103 -4.804,-2.814 v -14.586 c 0,-1.098 0.926,-2.025 2.059,-2.025 h 5.56 c 1.098,0 2.024,0.927 2.024,2.06 z"
     id="path1392" />
  <path
     d="m 21.454,43.024697 h -8.237 l 0.034,-13.624 8.203,0.034 z"
     fill="#ff7900"
     id="path1394" />
  <path
     d="m 18.056,44.500697 c 0,0.378 -0.309,0.72 -0.72,0.72 a 0.725,0.725 0 0 1 -0.721,-0.72 c 0,-0.412 0.308,-0.72 0.72,-0.72 0.412,0 0.721,0.308 0.721,0.72 z"
     fill="#d6d6d6"
     id="path1396" />
  <path
     d="m 11.432,41.137697 c -0.652,0 -1.166,-0.515 -1.166,-1.133 0,-0.617 0.514,-1.132 1.166,-1.132 h 3.226 c 0.652,0 1.167,0.48 1.167,1.132 0,0.618 -0.515,1.133 -1.167,1.133 z m 9.61,4.701 c -0.618,0 -1.099,-0.48 -1.099,-1.063 0,-0.584 0.481,-1.064 1.099,-1.064 h 1.544 c 0.618,0 1.098,0.48 1.098,1.064 0,0.583 -0.48,1.064 -1.098,1.064 z m 0,-2.367 c -0.618,0 -1.099,-0.48 -1.099,-1.099 0,-0.583 0.481,-1.064 1.099,-1.064 h 1.544 c 0.618,0 1.098,0.48 1.098,1.064 0,0.618 -0.48,1.099 -1.098,1.099 z m 0,-2.403 c -0.618,0 -1.099,-0.48 -1.099,-1.064 0,-0.617 0.481,-1.098 1.099,-1.098 h 1.544 c 0.618,0 1.098,0.48 1.098,1.098 0,0.584 -0.48,1.064 -1.098,1.064 z"
     fill="#f4cfb2"
     id="path1398" />
  <ellipse
     style="fill:#ffffff;stroke-width:0;stroke-linecap:round;stroke-linejoin:round;fill-opacity:1"
     id="path2673"
     cx="6.6696305"
     cy="25.511606"
     rx="3.5607271"
     ry="2.5198553" />
  <path
     d="m 11.053,25.466697 c 0,-2.405 -1.978,-4.33 -4.383,-4.33 a 4.311,4.311 0 0 0 -4.329,4.33 c 0,2.405 1.924,4.382 4.33,4.382 0.32,0 0.587,-0.053 0.908,-0.107 0.801,0.588 2.084,1.604 2.137,1.55 0,-0.053 -0.427,-1.229 -0.694,-2.138 1.229,-0.748 2.03,-2.137 2.03,-3.687 z m -6.734,-1.604 4.703,-0.053 c 0.213,0 0.374,0.16 0.374,0.374 0,0.214 -0.16,0.374 -0.374,0.374 H 4.319 c -0.16,0 -0.321,-0.16 -0.321,-0.374 0,-0.214 0.16,-0.32 0.32,-0.32 z m 0,1.23 4.703,-0.054 c 0.213,0 0.374,0.16 0.374,0.374 0,0.214 -0.16,0.374 -0.374,0.374 H 4.319 c -0.16,0 -0.321,-0.16 -0.321,-0.374 0,-0.214 0.16,-0.32 0.32,-0.32 z m 4.703,1.924 H 4.319 c -0.16,0 -0.321,-0.16 -0.321,-0.375 0,-0.213 0.16,-0.32 0.32,-0.32 l 4.704,-0.054 c 0.213,0 0.374,0.16 0.374,0.374 0,0.214 -0.16,0.375 -0.374,0.375 z"
     id="path1400" />
  <path
     d="M 21.454,39.284697 H 20.8 c -0.24,0 -0.446,0.206 -0.446,0.48 v 0.55 c 0,0.24 0.206,0.445 0.446,0.445 h 0.653 z m -7.344,1.51 h 0.72 c 0.275,0 0.515,-0.24 0.515,-0.515 v -0.618 a 0.528,0.528 0 0 0 -0.515,-0.515 h -0.72 z m 7.344,0.858 H 20.8 c -0.24,0 -0.446,0.206 -0.446,0.48 v 0.55 c 0,0.24 0.206,0.445 0.446,0.445 h 0.653 z m 0,2.368 H 20.8 c -0.24,0 -0.446,0.206 -0.446,0.48 v 0.55 c 0,0.274 0.206,0.48 0.446,0.48 h 0.653 z m -9.678,7.688 c 1.407,0.136 2.368,0.72 3.809,0.617 a 27.048,27.048 0 0 0 2.917,-0.31 l -0.274,-4.838 -6.693,0.412 z m 9.266,-13.008 c -0.618,0 -1.099,-0.48 -1.099,-1.098 0,-0.583 0.481,-1.064 1.099,-1.064 h 1.544 c 0.618,0 1.098,0.48 1.098,1.064 0,0.618 -0.48,1.098 -1.098,1.098 z"
     fill="#f4cfb2"
     id="path1402" />
  <path
     d="M 21.454,36.847697 H 20.8 c -0.24,0 -0.446,0.206 -0.446,0.48 v 0.55 c 0,0.274 0.206,0.48 0.446,0.48 h 0.653 z"
     fill="#f4cfb2"
     id="path1404" />
  <path
     d="m 18.845,51.982697 h -7.55 v -2.265 h 7.55 z"
     fill="#492191"
     id="path1406" />
  <path
     d="m 20.115,92.604697 v -39.022 c 0,-1.004 -0.858,-1.84 -1.887,-1.84 h -6.11 c -1.063,0 -1.887,0.836 -1.887,1.84 v 39.022 z"
     fill="#492191"
     id="path1408" />
  <g
     transform="matrix(0.10296,0,0,0.10296,164.16,-48.425303)"
     id="g1422">
    <rect
       width="90.114998"
       height="125.063"
       x="-1318.2159"
       y="666.83301"
       rx="10"
       ry="10"
       id="rect1410" />
    <circle
       cx="-1273.158"
       cy="733.36401"
       r="32.701"
       fill="#fdb201"
       id="circle1412" />
    <g
       transform="translate(1.06,2)"
       fill="#fdb201"
       id="g1418">
      <circle
         r="8.9870005"
         cy="682.87402"
         cx="-1299.307"
         id="circle1414" />
      <circle
         r="8.9870005"
         cy="682.87402"
         cx="-1249.132"
         id="circle1416" />
    </g>
    <path
       style="line-height:normal;font-variant-ligatures:normal;font-variant-position:normal;font-variant-caps:normal;font-variant-numeric:normal;font-variant-alternates:normal;font-feature-settings:normal;text-indent:0;text-align:start;text-decoration-line:none;text-decoration-style:solid;text-decoration-color:#000000;text-transform:none;text-orientation:mixed;white-space:normal;shape-padding:0;isolation:auto;mix-blend-mode:normal;solid-color:#000000;solid-opacity:1"
       d="m -1273.516,617.549 c -1.738,-0.167 -3.663,-0.147 -5.802,0.052 l 0.462,4.979 c 3.773,-0.351 6.438,0 8.176,0.687 1.738,0.688 2.617,1.6 3.23,2.922 1.228,2.644 0.828,7.505 -0.72,13.006 -1.548,5.501 -4.04,11.553 -5.998,16.893 -0.98,2.67 -1.827,5.16 -2.354,7.41 -0.527,2.249 -0.845,4.25 -0.207,6.271 l 4.768,-1.506 c -0.11,-0.35 -0.13,-1.749 0.308,-3.625 0.44,-1.875 1.228,-4.232 2.18,-6.828 1.904,-5.191 4.45,-11.34 6.115,-17.26 1.666,-5.919 2.657,-11.699 0.444,-16.466 -1.107,-2.384 -3.154,-4.368 -5.926,-5.465 -1.386,-0.548 -2.938,-0.903 -4.676,-1.07 z"
       color="#000000"
       font-weight="400"
       font-family="sans-serif"
       overflow="visible"
       id="path1420" />
  </g>
  <g
     id="g1444"
     transform="translate(0,5.258697)">
    <path
       d="m 34.995,28.705 c 0,0.55 -0.412,0.995 -0.96,0.995 -0.55,0 -0.962,-0.446 -0.962,-0.995 v -7.722 c 0,-0.549 0.412,-0.995 0.961,-0.995 0.55,0 0.961,0.446 0.961,0.995 z"
       fill="#c19372"
       id="path1424" />
    <path
       d="m 40.486,27.092 h -5.834 c -0.892,0 -1.579,0.721 -1.579,1.613 v 4.633 l 2.128,3.158 h 5.182 c 0.858,0 1.579,-0.721 1.579,-1.579 v -6.212 c 0,-0.892 -0.583,-1.613 -1.476,-1.613 z"
       fill="#c19372"
       id="path1426" />
    <path
       d="m 35.476,29.426 c -0.927,0 -1.75,0.377 -2.403,0.927 L 30.74,26.886 c -0.344,-0.48 -0.996,-0.617 -1.476,-0.274 -0.515,0.309 -0.618,0.995 -0.309,1.476 l 5.422,7.962 c 0.206,0.274 0.515,0.411 0.824,0.446 h 0.275 c 1.922,0 3.535,-1.579 3.535,-3.535 A 3.53,3.53 0 0 0 35.476,29.426 Z M 34.72,21.395 v -0.617 c 0,-0.24 -0.17,-0.447 -0.411,-0.447 h -0.55 a 0.454,0.454 0 0 0 -0.445,0.447 v 0.617 z"
       fill="#c19372"
       id="path1428" />
    <path
       d="m 37.329,28.705 c 0,0.55 -0.446,0.995 -0.995,0.995 -0.515,0 -0.961,-0.446 -0.961,-0.995 v -7.722 c 0,-0.549 0.446,-0.995 0.96,-0.995 0.55,0 0.996,0.446 0.996,0.995 z"
       fill="#c19372"
       id="path1430" />
    <path
       d="m 37.054,21.395 v -0.617 a 0.454,0.454 0 0 0 -0.446,-0.447 h -0.549 c -0.24,0 -0.412,0.206 -0.412,0.447 v 0.617 z m 2.574,7.31 c 0,0.55 -0.446,0.995 -0.96,0.995 a 0.996,0.996 0 0 1 -0.996,-0.995 v -7.722 c 0,-0.549 0.446,-0.995 0.995,-0.995 0.515,0 0.961,0.446 0.961,0.995 z"
       fill="#c19372"
       id="path1432" />
    <path
       d="m 39.354,21.395 v -0.617 a 0.454,0.454 0 0 0 -0.446,-0.447 h -0.515 a 0.454,0.454 0 0 0 -0.446,0.447 v 0.617 z m 2.608,7.31 c 0,0.55 -0.446,0.995 -0.995,0.995 -0.515,0 -0.961,-0.446 -0.961,-0.995 v -7.722 c 0,-0.549 0.446,-0.995 0.96,-0.995 0.55,0 0.996,0.446 0.996,0.995 z"
       fill="#c19372"
       id="path1434" />
    <path
       d="m 41.653,21.395 v -0.617 c 0,-0.24 -0.171,-0.447 -0.412,-0.447 h -0.549 a 0.454,0.454 0 0 0 -0.446,0.447 v 0.617 z M 35.03,39.756 c 1.235,0.206 2.059,0.755 3.363,0.755 0.72,0 1.922,-0.034 2.642,-0.103 V 36.05 H 35.03 Z"
       fill="#c19372"
       id="path1436" />
    <path
       d="m 41.825,41.129 h -7.036 v -2.3 h 7.036 z"
       fill="#595959"
       id="path1438" />
    <path
       d="M 42.648,87.346 H 34.79 V 40.854 h 7.86 z"
       fill="#ff7900"
       id="path1440" />
    <path
       d="m 40.04,42.913 c 0,0.48 0.412,0.893 0.892,0.893 0.48,0 0.858,-0.412 0.858,-0.893 a 0.85,0.85 0 0 0 -0.858,-0.858 c -0.48,0 -0.892,0.378 -0.892,0.858 z"
       fill="#ffffff"
       id="path1442" />
  </g>
  <path
     d="m 166.596,41.910697 c 0,-2.406 1.978,-4.33 4.383,-4.33 a 4.311,4.311 0 0 1 4.329,4.33 c 0,2.405 -1.924,4.382 -4.33,4.382 -0.32,0 -0.587,-0.053 -0.908,-0.107 -0.802,0.588 -2.084,1.603 -2.138,1.55 0,-0.053 0.428,-1.23 0.695,-2.138 -1.23,-0.748 -2.03,-2.138 -2.03,-3.687 z"
     id="path1446" />
  <g
     style="line-height:1.25"
     font-weight="400"
     font-size="40.762px"
     font-family="'HelveticaNeue LT 65 Medium'"
     letter-spacing="0"
     word-spacing="0"
     stroke-width="2.548"
     fill="#ffffff"
     id="g1450"
     transform="translate(0,5.258697)">
    <path
       style="-inkscape-font-specification:'HelveticaNeue LT 65 Medium, '"
       d="m 170.262,35.892 q -0.033,-0.13 -0.092,-0.24 -0.059,-0.109 -0.151,-0.189 -0.092,-0.08 -0.218,-0.121 -0.122,-0.046 -0.286,-0.046 -0.239,0 -0.415,0.096 -0.172,0.097 -0.281,0.26 -0.11,0.16 -0.164,0.365 -0.05,0.206 -0.05,0.42 0,0.214 0.05,0.42 0.055,0.205 0.164,0.37 0.109,0.159 0.28,0.255 0.177,0.097 0.416,0.097 0.177,0 0.31,-0.06 0.135,-0.062 0.232,-0.167 0.096,-0.11 0.15,-0.252 0.055,-0.142 0.072,-0.306 h 0.512 q -0.017,0.268 -0.117,0.49 -0.097,0.223 -0.265,0.387 -0.168,0.16 -0.394,0.248 -0.227,0.088 -0.5,0.088 -0.335,0 -0.604,-0.122 -0.264,-0.126 -0.449,-0.34 -0.185,-0.214 -0.285,-0.5 -0.097,-0.285 -0.097,-0.608 0,-0.319 0.097,-0.604 0.1,-0.286 0.285,-0.5 0.185,-0.214 0.449,-0.34 0.269,-0.125 0.604,-0.125 0.252,0 0.475,0.07 0.222,0.068 0.39,0.202 0.172,0.13 0.277,0.32 0.105,0.188 0.13,0.432 z m 3.033,0 q -0.033,-0.13 -0.092,-0.24 -0.059,-0.109 -0.151,-0.189 -0.093,-0.08 -0.219,-0.121 -0.121,-0.046 -0.285,-0.046 -0.24,0 -0.415,0.096 -0.172,0.097 -0.282,0.26 -0.109,0.16 -0.163,0.365 -0.05,0.206 -0.05,0.42 0,0.214 0.05,0.42 0.054,0.205 0.163,0.37 0.11,0.159 0.282,0.255 0.176,0.097 0.415,0.097 0.176,0 0.31,-0.06 0.135,-0.062 0.231,-0.167 0.097,-0.11 0.152,-0.252 0.054,-0.142 0.07,-0.306 h 0.513 q -0.017,0.268 -0.118,0.49 -0.096,0.223 -0.264,0.387 -0.168,0.16 -0.394,0.248 -0.227,0.088 -0.5,0.088 -0.336,0 -0.604,-0.122 -0.265,-0.126 -0.45,-0.34 -0.184,-0.214 -0.285,-0.5 -0.096,-0.285 -0.096,-0.608 0,-0.319 0.096,-0.604 0.101,-0.286 0.286,-0.5 0.184,-0.214 0.449,-0.34 0.268,-0.125 0.604,-0.125 0.252,0 0.474,0.07 0.223,0.068 0.39,0.202 0.173,0.13 0.278,0.32 0.105,0.188 0.13,0.432 z"
       id="path1448" />
  </g>
  <g
     transform="matrix(0.59144,0,0,0.59144,24.503,-110.0843)"
     fill="#ffffff"
     id="g1458">
    <path
       d="m -17.376,241.395 h 3.541 v 3.742 h -3.541 z"
       id="path1452" />
    <ellipse
       cx="-15.606"
       cy="239.925"
       rx="1.5700001"
       ry="1.47"
       id="ellipse1454" />
    <path
       style="line-height:normal;font-variant-ligatures:normal;font-variant-position:normal;font-variant-caps:normal;font-variant-numeric:normal;font-variant-alternates:normal;font-feature-settings:normal;text-indent:0;text-align:start;text-decoration-line:none;text-decoration-style:solid;text-decoration-color:#000000;text-transform:none;text-orientation:mixed;white-space:normal;shape-padding:0;isolation:auto;mix-blend-mode:normal;solid-color:#000000;solid-opacity:1"
       d="m -12.358,241.444 v 0.795 h 5.68 v -0.795 z m 0,1.523 v 0.713 h 4.594 v -0.713 z m 0,1.483 v 0.712 h 4.594 v -0.712 z"
       color="#000000"
       font-weight="400"
       font-family="sans-serif"
       overflow="visible"
       id="path1456" />
  </g>
</svg>
