<svg xmlns="http://www.w3.org/2000/svg" xmlns:xlink="http://www.w3.org/1999/xlink">
  <symbol id="check" viewBox="0 0 1000 1000" fill="currentColor">
    <path d="M729.667 250 396.333 583.333l-125-125L188 541.667l125 125L396.333 750l83.334-83.333L813 333.333z"/>
  </symbol>
  <symbol id="ui-auto-mode" viewBox="0 0 1000 1000" fill="currentColor">
    <path d="M500 75C265.3 75 75 265.5 75 500.5S265.3 926 500 926s425-190.5 425-425.5S734.7 75 500 75m0 775V150c192.6.9 350 157.5 350 350.5S692.6 849.1 500 850"/>
  </symbol>
  <symbol id="ui-dark-mode" viewBox="0 0 1000 1000" fill="currentColor">
    <path d="M675 649.88c-179.493 0-325-145.57-325-325.141A324.478 324.478 0 0 1 465.721 76C247.03 93.463 75 276.537 75 499.815 75 734.638 265.279 925 500 925c223.181 0 406.175-172.106 423.63-390.891A324.222 324.222 0 0 1 675 649.88Z"/>
  </symbol>
  <symbol id="ui-light-mode" viewBox="0 0 1000 1000" fill="currentColor">
    <path d="M287.868 712.132a25.073 25.073 0 0 0-35.355 0l-53.033 53.033a25 25 0 0 0 35.355 35.355l53.033-53.033a25.073 25.073 0 0 0 0-35.355Zm424.264-424.264a25.073 25.073 0 0 0 35.355 0l53.033-53.033a25 25 0 0 0-35.355-35.355l-53.033 53.033a25.073 25.073 0 0 0 0 35.355Zm35.355 424.264a25.073 25.073 0 0 0-35.355 0 25.073 25.073 0 0 0 0 35.355l53.033 53.033a25 25 0 0 0 35.355-35.355ZM252.513 287.868a25.073 25.073 0 0 0 35.355 0 25.073 25.073 0 0 0 0-35.355l-53.033-53.033a25 25 0 0 0-35.355 35.355ZM200 500a25.073 25.073 0 0 0-25-25h-75a25 25 0 0 0 0 50h75a25.073 25.073 0 0 0 25-25Zm700-25h-75a25 25 0 0 0 0 50h75a25 25 0 0 0 0-50ZM500 800a25.073 25.073 0 0 0-25 25v75a25 25 0 0 0 50 0v-75a25.073 25.073 0 0 0-25-25Zm0-600a25.073 25.073 0 0 0 25-25v-75a25 25 0 0 0-50 0v75a25.073 25.073 0 0 0 25 25Zm0 50c-138.071 0-250 111.929-250 250s111.929 250 250 250 250-111.929 250-250-111.929-250-250-250Z"/>
  </symbol>
  <symbol id="full-screen" viewBox="0 0 1000 1000" fill="currentColor">
    <path d="M125,125V375h75V200H375V125H125Zm675,0H625v75H800V375h75V125H800Zm0,675H625v75H875V625H800V800ZM200,625H125V875H375V800H200V625Z" style="fill-rule:evenodd"/>
  </symbol>
  <symbol id="clock-white" viewBox="0 0 1000 1000" fill="currentColor">
    <path d="M597.517,590.517 C590.484346,597.549917 580.945861,601.500991 571,601.500991 C561.054139,601.500991 551.515654,597.549917 544.483,590.517 L397.983,444.017 C397.962,443.995 397.943,443.973 397.922,443.952 C397.506667,443.534667 397.101667,443.108667 396.707,442.674 C396.507,442.449 396.312,442.218 396.114,441.99 C395.916,441.762 395.707,441.526 395.514,441.29 C395.275,440.998 395.048,440.7 394.814,440.404 C394.673,440.221 394.528,440.042 394.39,439.856 C394.147,439.529 393.916,439.197 393.685,438.864 C393.57,438.699 393.452,438.536 393.339,438.364 C393.109,438.022 392.892,437.675 392.674,437.327 C392.568,437.158 392.46,436.99 392.357,436.819 C392.151,436.478 391.957,436.133 391.763,435.786 C391.656,435.596 391.547,435.407 391.444,435.215 C391.27,434.889 391.104,434.56 390.944,434.23 C390.832,434.006 390.718,433.783 390.61,433.556 C390.468,433.256 390.333,432.95 390.199,432.645 C390.083,432.382 389.965,432.119 389.855,431.853 C389.745,431.587 389.637,431.308 389.532,431.034 C389.413,430.728 389.295,430.422 389.184,430.112 C389.099,429.873 389.02,429.632 388.94,429.392 C388.824,429.044 388.709,428.697 388.603,428.346 C388.539,428.133 388.481,427.919 388.421,427.706 C388.314,427.328 388.209,426.951 388.114,426.569 C388.065,426.369 388.022,426.169 387.975,425.969 C387.884,425.575 387.794,425.181 387.716,424.782 C387.675,424.582 387.643,424.373 387.606,424.169 C387.536,423.776 387.465,423.384 387.406,422.988 C387.371,422.751 387.346,422.514 387.316,422.277 C387.269,421.912 387.216,421.548 387.184,421.177 C387.153,420.863 387.135,420.548 387.112,420.234 C387.091,419.934 387.064,419.647 387.049,419.351 C387.019,418.733 387.002,418.115 387.002,417.497 L387.002,142.497 C387.002,121.786322 403.791322,104.997 424.502,104.997 C445.212678,104.997 462.002,121.786322 462.002,142.497 L462.002,401.967 L597.517,537.483 C604.549917,544.515654 608.500991,554.054139 608.500991,564 C608.500991,573.945861 604.549917,583.484346 597.517,590.517 L597.517,590.517 Z M425,0 C659.721,0 850,190.279 850,425 C850,659.721 659.721,850 425,850 C190.279,850 0,659.721 0,425 C0,190.279 190.279,0 425,0 Z M425,75 C231.7,75 75,231.7 75,425 C75,618.3 231.7,775 425,775 C618.3,775 775,618.3 775,425 C775,231.7 618.3,75 425,75 Z" transform="translate(75 75)"/>
  </symbol>
</svg>